<svg width="157" height="34" fill="none" xmlns="http://www.w3.org/2000/svg"><path d="M153.364 17.887c-.104-.278-.415-.382-.588-.591-.07-.104-.07-.209-.139-.244s-.519-.209-.692-.174c-.173.035-.139.21-.312.279-.45.104-.346-.174-.554-.314-.069-.07-.104-.07-.277-.07.035-.173 1.385-.208 1.558-.87.173-1.182-.865-1.078-1.004-1.495-.035-.105.069-.348 0-.488-.173-.522-.415 0-.658.035h-.138s-.104 0-.035-.14c.104-.208.312-.243.277-.486-.034-.383-1.004-.696-.865-.87.069-.07.277-.105.38-.348.035-.105.07-.383 0-.627v-.07c-.034-.069-.069-.173-.103-.243-.243-.313-.693-.348-1.177-.591-.381-.21-.693-.766-1.108-.731h-.035c-.035 0-.242.139-.415.139-.07 0-.104-.035-.139-.07 0-.07.069-.243.173-.591.104-.314-.173-.383-.242-.418-.173-.07-.416-.035-.554-.14-.173-.104-.069-.347-.173-.556-.069-.244-.277-.278-.45-.626-.104-.174-.104-.348-.173-.488-.104-.243-.208-.382-.208-.591 0-.07 0-.279-.035-.418-.034-.139-.207-.278-.415-.417-.242-.174-.554-.348-.796-.418a.648.648 0 00-.243-.07c-.069-.034-.138 0-.242.07-.139.174-.139.244-.277.418-.035.034-.069.034-.139 0-.138-.035-.242-.14-.415-.174-.138-.035-.277-.035-.415-.07-.139-.035-.52-.487-.589-.626-.138-.279-.381-.557-.589-.662-.034-.034-.103-.034-.138-.07-.242 0-.242.21-.554.14-.45-.14-.658-.07-.692-.035-.347.07-.381.522-.52.487-.069-.034-.207-.174-.346-.208-.381-.105-.623.174-.692.313-.139-.105-.52-.105-.693-.105-.173 0-.45.21-.588.348-.139.105-.554-.07-.762.105h-.035c-.138.104-.173.243-.276.313-.104 0-.451.07-.589.209-.139.07-.242.278-.277.417-.035.07-.035.14-.069.105h-.035c-.138-.035-.381 0-.519.035-.069 0-.104.034-.173.07h-.035l-.035.034-.069.14c-.034.104-.034.208-.104.347-.138.244-.519.313-.554.592-.034.209.174.417.243.73.069.244.104.557 0 .731-.035.035-.069.07-.104.07h-.069c-.035 0-.07 0-.104-.035-.242-.209-.139-.417-.519-.313-.035 0-.174.035-.277.07-.243.139-.208.243-.347.348a1.59 1.59 0 01-.346.174h-.034l-.07.07c-.138.104-.277.243-.311.382-.035.14 0 .348.034.487v.035c0 .035 0 .035.035.07 0 .07.035.104 0 .104-.069-.07-.104-.104-.104-.14-.138-.312-.069-.486-.311-.452-.07 0-.174 0-.243.035-.034 0-.242 0-.346.035-.139.035-.277.174-.415.244-.104.034-.243.07-.347.104-.138.07-.242.104-.346.244-.173.243-.035.835-.173.94-.173-.07-.415.069-.485.243-.104.174-.242.278-.242.487 0 .14.173.209.208.383.034.104-.035.244 0 .383 0 .034.138.208.277.348 0 .243-.381-.035-.52.174-.138.139-.242.8-.173 1.009.104.313.97.278 1.039.557.034.243-.173.139-.277.243a.49.49 0 00-.069.21v-.036c0-.034-.173-.278-.277-.348 0 0-.104-.034-.347-.07h-.138c-.312 0-.312.036-.381.105-.034.035-.034.035-.034.07a.265.265 0 00-.07.174c-.034.104-.034.174-.034.278 0 0 0 .348-.07.244-.034-.035-.034-.07-.069-.105a.817.817 0 00-.277-.313s-.034-.035-.069-.035h-.035H127.503c-.035 0-.07 0-.07.035a1.142 1.142 0 00-.277.209c-.034.035-.069.035-.069.07-.173.174-.173.313-.277.487-.069.174-.277.313-.242.452.034.209.311.14.484.278.035 0 .035.035.07.07v.035c-.104.104-.45-.07-.658.104h-.035c-.034.07-.069.14-.034.21 0 .069 0 .138-.035.243-.104.243-.381.313-.415.522 0 .174.173.313.138.452 0 .14-.277.279-.277.383 0 .278.519.522.935.418.173-.035.277-.244.381-.244.138 0 .484.244.796.174.138-.035.312-.244.519-.348.104-.035.45-.348.589-.07.034.105-.035.244-.035.383 0 .174.035.453.173.522.104.035.243-.035.312-.035.173.035.242.279.346.314.312.139.9.104 1.177 0 .139-.035.208-.21.346-.21.208.036.381.349.589.418.312.105.485-.07.796-.104.277-.035.589.14.866.14h.104a.721.721 0 00.207-.14l.035-.035c.035-.035.035-.035.035-.07 0 0 0-.034.034-.034.035-.07.069-.174.139-.244l.034-.035.035-.034c.035-.035.069-.035.104-.035h.242c.069 0 .104.035.208.035.761.034 1.454-.105 1.765-.627h-.034c.034-.035.069-.07.069-.139 0-.07.035-.14 0-.278-.104-.174-.173-.279-.208-.349.312.035.52-.278.762-.139.139.07.104.662.069.87-.034.592-.104 1.358-.277 1.88l-.104.208c-.034.035-.069.105-.103.14-.208.139-.624.313-.831.382-.07.035-.208.105-.381.174-.035 0-.035.035-.069.035l-.104.07s-.035.035-.139.07c-.034 0-.034.034-.069.034-.208.14-.519.383-.554.522v.035c-.035.07-.035.104-.035.14.07.138.451.104.797.069.45-.035 1.108-.035 1.419-.035.208 0 .485 0 .589.035.034.035-.208.522-.173.765.104.453.484.174.692.07 1.039-.487 2.25-.661 3.462-.244.173.035 1.004.592 1.143.453.069-.035.069-.105.069-.14.138-.069.069-.556-.139-.87l-.034-.034c0-.035 0-.035.069-.035H142.597c.381.035.935-.035 1.454 0 .416.035.9.035 1.108-.07-.035-.034-.035-.034 0-.034a.867.867 0 00-.381-.522 2.457 2.457 0 00-.519-.279c-.346-.174-.762-.278-1.073-.487-.312-.244-.52-.766-.624-1.322-.069-.453-.069-.905-.103-1.253 0-.105-.035-.8.415-.592.104.07.173.174.208.244.207.417.277.94.658 1.113.519.279 1.073-.174 1.661-.034.208.07.312.417.658.417.208 0 .381-.243.623-.209.208.035.381.279.589.314.796.139.831-.8 1.454-.696.311.034.415.487.762.556.311.07.692-.07.969-.104.312-.035.658 0 .796-.244 0-.07 0-.208-.104-.278h.035c.069 0 .069-.104.138-.07.139.035.208.244.312.244.208.035.969-.104 1.108-.174.173-.14.138-.244.311-.313.277-.105.762 0 .797-.313-.243-.14-.416-.592-.485-.697zm-24.927-.278c-.034.07-.034.104-.069.104-.035.035-.104.07-.104.105-.346.313-.415.278-.415.278h-.035c-.277.105-.588-.209-.588-.452a.5.5 0 01.069-.244c0-.034.034-.034.069-.07h.069c.243-.104.797-.243.9-.173.104.035.139.243.139.383-.035.034-.035.07-.035.07zm20.634-3.654s-.035 0 0 0c-.035.035-.035.035 0 0l-.034.035h-.035s-.035.035-.069.035c-.104.034-.208.034-.243 0-.242-.035-.519-.14-.588-.279v-.035-.034-.105c.104-.104.173-.174.242-.208.035-.035.035-.105.069-.175.07-.07.139-.104.139-.104h.034c.277-.104.485.278.52.592 0 .07 0 .209-.035.278zm-.069 2.645c.035-.035.104-.035.138-.07h.035c.312-.035.623.348.554.557 0 .035-.035.07-.035.07s-.034 0-.034.035l-.035.034-.138.07c-.035 0-.104.035-.139 0-.104-.035-.277-.279-.346-.522 0-.035 0-.07-.035-.105 0-.034 0-.034.035-.07-.035 0-.035 0 0 0zm-2.112-6.02c.139-.035.381 0 .381 0a1.61 1.61 0 011.177.382c.104.07.138.244.277.383.104.104.242.209.242.278.035.14-.104.244-.069.383 0 .174.173.348.208.522v.035c0 .14-.035.209-.104.209h-.035-.069c-.173 0-.381-.14-.45-.14-.139-.104-.277-.486-.346-.765-.069-.244-.035-.452-.208-.626-.242-.279-.969-.07-1.142-.383v-.035c0-.035-.07-.209.138-.244zm.9 2.018c0 .278-.173.313-.242.278h-.069c-.312 0-.658.07-.589-.208.035-.105.104-.07.208-.175.138-.208.034-.521.034-.73 0-.035 0-.14.035-.174 0 0 0-.035.035-.035.173-.07.38.243.45.383.069.174.104.383.104.591v.035c.034 0 .034 0 .034.035zm-1.004 1.357s0-.035 0 0c0-.035 0-.035 0 0 .139-.14.45-.209.519-.209.139 0 .312-.035.381.07.07.14-.138.452-.242.591-.104.175-.277.07-.554.279-.104.07-.104.278-.381.278h-.138c-.035 0-.07-.034-.07-.07-.103-.243.277-.73.485-.939zm-1.246-1.496v-.035c0-.035 0-.035.034-.07 0 0 0-.034.035-.034.035-.035.035-.07.069-.105l.07-.07a.302.302 0 01.207-.139H146.059c.139 0 .242.035.312.105.138.208 0 .487-.139.66 0 0-.104.314-.346.349-.069.035-.173 0-.242-.035-.035 0-.035-.035-.07-.035-.103-.174-.069-.417-.034-.591zm.935-1.462c.034.07 0 .14 0 .14v.034c-.07.104-.312.14-.312.14h-.035c-.277.069-.554.104-.831.278-.207.139-.207.313-.588.243-.035 0-.104 0-.173-.035-.173-.034-.243 0-.346.105-.07.07-.104.174-.173.244-.035.034-.035.034-.07.034h-.104-.034c-.035 0-.035 0-.069-.034l-.035-.035-.035-.035c-.069-.104-.034-.244 0-.348.035-.104-.034-.313.104-.418l.035-.035a.712.712 0 01.208-.139c.069-.07.138-.208.173-.278.034-.07.069-.104.103-.174.174-.244.277-.244.277-.244.139 0 .277.244.243.453 0 .034-.035.07 0 .07.034 0 .069 0 .104-.035.415-.07 1.419-.314 1.558.07zm-2.078 2.018c0 .035 0 .07-.069.175 0 0-.035.07-.069.104a.647.647 0 01-.242.278h-.035c-.035 0-.035.035-.069.035h-.07a.656.656 0 01-.277-.07c-.069-.034-.069-.139-.069-.243V13.19c0-.035 0-.035.035-.07v-.07-.035c0-.034 0-.034.034-.034.07-.105.174-.244.243-.313l.034-.035c.243-.174.658-.035.554.383zm-1.904-2.296a.535.535 0 01.139-.21c.034-.034.104-.069.173-.104.034-.034.069-.034.138-.07.035-.034.035-.069.035-.069s0-.07.035-.104c0-.07.034-.14.034-.209 0-.07.035-.174.035-.278 0-.07-.035-.14.034-.174.07-.035.139-.07.208-.07.173-.035.381 0 .416.174.034.07-.07.174-.035.278.035.07.173.244.173.349 0 .034-.069.104-.069.104l-.069.035s-.035 0-.035.034c-.208.14-.277.244-.346.279-.035 0-.104.104-.139.174-.034.035-.034.07-.034.104v.035c-.035.104-.035.244-.035.348 0 .035 0 .035-.035.07a.351.351 0 01-.207.174c-.035.034-.07.034-.104.034-.069 0-.104 0-.173-.034-.173-.14-.243-.696-.139-.87zm1.073-2.54c.035-.105.312-.14.312-.14.208-.035.485.035.589.14.207.173.069.452.103.73 0 .14.104.244.139.348v.035c.035.174-.173.174-.242.174h-.035c-.312 0-.381-.453-.554-.661-.138-.174-.381-.244-.381-.488.035-.07.035-.104.069-.139zm1.87 1.53c.104-.139.208-.208.208-.208.277-.21.692.243.484.452-.138.104-.138.104-.242.313-.035.035-.035.07-.069.07l-.035.035-.034.034c-.035 0-.035 0-.07.035H145.505c-.034 0-.069-.034-.104-.034-.207-.14-.104-.523.035-.697zm-3.601-3.514c.035-.07.139-.14.243-.174.173-.07.242-.035.381 0 .207.07.277.348.415.382.208 0 .554-.487.866-.487.311-.035.623.174.761.383.104.174.104.348.243.487.207.279.761.487.692 1.288 0 .07 0 .209-.104.313-.035.07-.277.07-.311.035-.208-.14-.139-.8-.347-.87-.138-.035-.45.139-.588.07-.346-.14-.035-.488-.069-.627-.035-.348-.347-.244-.52-.244-.138 0-.138.14-.173.14 0 0-.035.104-.104.139l-.034.035-.035.034c-.173.035-.519-.139-.658-.174-.381-.07-.658.07-.692-.348a.505.505 0 01.034-.382zm.07 3.862s0 .105-.035.175c-.035.07-.069.104-.138.104h-.07c-.034 0-.069-.035-.069-.035-.138-.07-.069-.209-.138-.418-.035-.104-.139-.139-.174-.243-.034-.105.001-.244-.069-.313-.104-.105-.277-.07-.415-.174-.104-.105-.139-.314-.277-.418-.208-.14-.554-.104-.623-.209 0-.035-.035-.07-.035-.139v-.14c.035-.138.277-.243.277-.243.069-.035.139-.035.173-.035.139 0 .346.174.485.244.138.07.277.278.415.313.07.035.173-.035.243 0 .311.244.554.975.45 1.531zm-1.385-3.236c.034 0 .034 0 0 0 .069-.07.138-.104.208-.104.242-.07.588.07.657.278V7.099c0 .105-.069.174-.138.174H141.039c-.346.035-.692-.07-.519-.452zm0-2.018c.034 0 .034 0 0 0 .034 0 .034 0 0 0 .069-.105.208-.105.277-.105.277-.035.692.105.727.348 0 .035 0 .14-.035.244 0 .035-.069.139-.104.209l-.034.034c-.173.07-.658-.07-.762-.208a.457.457 0 01-.069-.383v-.14zm-3.047 1.774v-.034-.035l.035-.035.034-.035c.035 0 .035-.035.035-.035.035 0 .035-.034.035-.034a.26.26 0 01.138-.07c.139-.035.035-.104.035-.104-.104-.105-.208-.279-.139-.418 0-.035.139-.174.243-.244a.9.9 0 01.242-.104c.139-.035.277-.035.346.035.104.139-.034.452.208.487.173.035.346-.348.589-.313.207.035.346.313.519.313.277.035.588-.418.761-.035.035.105 0 .348-.069.418-.034.07-.069.104-.104.104l-.034.035c-.243.14-.831.209-1.039.14-.173-.07-.069-.175-.208-.244-.034 0-.069.034-.069.034-.034.105-.104.174-.173.244-.035.035-.138.14-.208.14-.104 0-.277 0-.346-.036-.034 0-.069.07-.104.105a.727.727 0 01-.104.174c-.034.035-.103.139-.173.174h-.034c-.104 0-.277-.14-.381-.348 0 0-.035-.035-.035-.105v-.034-.07-.07zm1.558 1.497l-.069.07a.769.769 0 01-.173.104c-.035.035-.035.07-.035.07-.034.173-.034.382-.104.591 0 0-.034.14-.069.209l-.035.035-.034.034c-.035.035-.069.035-.104.035H138.304c-.034 0-.069-.035-.069-.035-.139-.104-.173-.278-.208-.452 0-.174.069-.522.139-.696 0-.035.034-.035.034-.035.104-.174.208-.243.208-.243.346-.21 1.004 0 .623.313zm-1.385 3.34c-.173-.104-.242-.382-.311-.626 0 0-.035-.209-.035-.278v-.035c0-.035 0-.07.035-.07.069-.034.138-.034.138-.034h.139c.138.034.796.522.588.87-.034.034-.034.07-.069.174 0 .035-.035.035-.035.035-.069.034-.173.034-.173.034-.104 0-.242-.034-.277-.07zm-1.004-3.827a.759.759 0 01.139-.174h.034c.174-.14.52-.244.624-.07.069.104 0 .244-.035.313-.069.105-.069.14-.104.209 0 0 0 .035-.034.035h-.035H137.127a.494.494 0 01-.346-.14l-.069-.069s0-.035-.035-.035v-.035c-.069 0-.035 0-.035-.034zm.347 1.948c0 .035-.035.035-.035.07-.035.07-.104.104-.139.104-.069 0-.207 0-.277-.034-.138-.07-.415-.696-.311-1.01.035-.104.069-.208.173-.278h.035c.138-.104.588 0 .588.278 0 .14-.138.14-.173.279 0 .209.277.313.139.591zm-2.459 2.332c-.034-.035-.034-.07-.034-.07 0-.034-.035-.07-.035-.139 0-.07 0-.139.035-.174.069-.104.173-.139.173-.139.519-.278 1.281.244 1.316.835.034.174-.035.14-.208.14s-.416-.07-.416-.07c-.311-.07-.692-.209-.831-.383zm1.455-1.183a1.47 1.47 0 01-.416-.383c-.035-.035-.069-.07-.069-.104 0-.035-.035-.14 0-.21.069-.069.173-.104.173-.104.346-.104.9.244.865.662v.034c0 .035 0 .035-.034.035h-.035c-.069.035-.138.035-.242.035h-.139c-.069.035-.103.035-.103.035zm-1.039-3.62c.035-.034.069-.139.138-.173.139-.07.762-.07 1.004-.348.035-.07 0-.105.035-.14.069-.139.242-.243.381-.174.138.07.173.383.069.557v.035c-.069.104-.485.418-.796.487-.069 0-.208.035-.173.105.069.139.138.382.034.522 0 .034-.173.034-.173.07-.034.138.139.312.208.486.035.105.069.244-.035.279-.138.035-.277.035-.38-.035-.139-.07-.485-.974-.451-1.288 0-.104.07-.278.139-.382zm-3.047 4.281c.035-.07.035-.14.07-.174.069-.104.103-.14.173-.174h.069c.104 0 .242.035.346 0 .139-.035.277-.14.381-.209.104-.034.104-.104.104-.139v-.035c-.035-.104-.069-.174-.104-.348v-.034-.07c0-.105.069-.174.104-.244 0-.035.034-.07.069-.104l.035-.035c.104-.07.277-.174.415-.174.242-.035.381.14.589.14.277-.036.346-.627.761-.558.104.035.416.21.312.488 0 0-.035.174-.139.174-.138-.035-.311.034-.311.034-.069.105-.069.244-.139.314-.069.07-.173.104-.311.104-.243 0-.416 0-.554.035-.242.07-.035.243.138.487.173.244-.034.418-.104.418h-.173c-.138 0-.311 0-.519.07-.104.034-.208.173-.312.208l-.138.07c-.138.139-.381.243-.589.174-.103 0-.207-.279-.173-.418zm.9 6.508c-.034 0-.034 0 0 0-.034.07-.034.104-.069.139l-.034.035c-.035 0-.035.034-.07.034h-.034H132.488c-.035 0-.069 0-.069-.034h-.035l-.035-.035v-.07c-.069-.174-.069-.348-.069-.417 0-.07.069-.105.069-.174v-.14c0-.034.035-.034.035-.07 0-.034.069-.104.069-.104l.035-.034c.45-.279.415.556.311.87 0-.035 0-.035 0 0 0 0-.034 0 0 0zm-.346-2.924c-.034-.034-.034-.139 0-.313.07-.243.762-.139.935-.243l.035-.07c.034-.104.069-.244.138-.383.035-.034.069-.034.139-.07.38-.069.623.14.623.383a.516.516 0 01-.139.314s0 .034-.034.034c-.45.557-1.558.592-1.697.349zm-2.146-3.758c0-.035 0-.035.034-.035v-.034c.035-.035.035-.07.07-.07.034-.035.069-.035.069-.035.069-.035.173-.035.242-.035.208 0 .554.418.52.696v.07c-.104.07-.347.035-.347.035-.38-.035-.657-.313-.588-.592zm-.035 2.053c0-.034 0-.07.035-.07.069-.173.381-.452.381-.452.173-.139.45-.243.727-.278.138 0 .277.035.415 0 .416-.07.554-.452.796-.557.416-.14 1.212 0 1.074.383v.035c-.07.07-.277.139-.277.139-.243.104-.45.104-.554.14-.07 0-.139.069-.173.138 0 0 0 .035-.035.035 0 .035-.035.035-.069.07-.104.104-.208.174-.312.243h-.034c-.035 0-.035.035-.07.035h-.034c-.104.035-.208.035-.243.035-.173 0-.311-.035-.45-.035h-.207c-.035 0-.07 0-.139.035a.356.356 0 00-.208.174c-.034.104-.104.174-.138.243-.035.07-.104.174-.242.14-.035 0-.035 0-.07-.035-.034 0-.034-.035-.069-.07l-.035-.034s0-.035-.034-.035a.49.49 0 01-.069-.21c.034 0 .034-.034.034-.069 0 0 0 .035 0 0zm.866.522l.034-.035h.035c.312-.104.727.244.623.592 0 .035 0 .035-.035.07-.346.174-.657-.14-.727-.348-.034-.035-.034-.105-.034-.174 0-.035 0-.035.034-.07.035.035.035 0 .07-.035zm-1.558 2.332c0-.035 0-.104.138-.209.243-.174.312-.278.346-.383.139-.243.139-.348.174-.556.034-.175.034-.279.034-.279 0-.035 0-.035.035-.07.381-.173.484.488.415.766-.069.418-.692.661-.692 1.253v.035s-.035.034-.104.034H129.753l-.035-.034-.034-.035c-.139-.279-.104-.487-.104-.522zm1.281 2.714s0 .035-.035.035c-.035.035-.035.035-.069.035-.069.035-.173.035-.312.035-.277.035-.588-.035-.658-.244 0-.035-.034-.104-.034-.14 0-.104.034-.208 0-.312 0-.035 0-.105-.035-.14-.069-.104-.415-.243-.519-.382v-.035V17.539c0-.104.069-.174.104-.208.034-.035.069-.07.104-.07.554-.244.761.696.934.94.07.104.485.174.554.278 0 .105 0 .244-.034.313zm.45-.974s0 .174-.104.209h-.035c-.034 0-.034 0-.069-.035-.381-.105-.796-.453-.658-.8v-.035c.312-.557 1.039.07.866.66zm-.381-1.67c-.035-.07.035-.383.138-.522l.07-.07.034-.035h.07c.069-.035.207-.104.311-.07.069 0 .45.383.519.766.035.174 0 .279-.069.348-.138.244-.381.209-.45.209-.208-.105-.623-.279-.623-.627zm2.216 2.818s-.035 0 0 0c-.139.07-.277.14-.416.174-.104.035-.207.035-.346.035h-.035-.034c-.416-.035-.727-.278-.658-.557v-.104c0-.035.346-.104.485-.104.346 0 .969.174 1.038.278.035.104.035.209-.034.278zm1.315-.452c0 .035 0 .035 0 0 0 .035 0 .035 0 0-.034.035 0 .035 0 0-.207.14-.623.104-.692-.174 0-.14.069-.105.138-.244.035-.104-.034-.417.139-.556.104-.14.519-.174.519.034-.104.418.069.731-.104.94zm3.185-2.088c0 .035 0 .035-.034.035-.243.07-.97-.174-1.281-.21-.035 0-.208-.034-.416 0-.277.14-.346.384-.45.488h-.034s-.035 0-.035.035c-.035 0-.069.035-.104.035-.034.034-.519.07-.692 0-.104-.035-.208-.14-.312-.21-.034-.034-.277-.104-.45-.173a.81.81 0 01-.346-.174c-.035-.07-.069-.14 0-.209.034-.14.519-.278.658-.209.242.07.242.314.484.314.173 0 .243-.279.416-.314.104-.034.208.07.311.07a.26.26 0 00.173-.07c.035-.034.104-.104.07-.174-.07-.139-.035-.174.069-.209.138-.07.692.035.969.14.277.139.554.452.693.522.138.035.346.035.311.313zm1.974-2.784c0 .035 0 .035 0 0 0 .035 0 .035 0 0-.035.035-.035.07-.035.07 0 .034-.035.034-.035.034l-.069.07c0 .035-.034.035-.034.07 0 .034-.035.034-.035.07-.138.243-.242.695-.277 1.113 0 .07 0 .104-.035.174v.034c0 .035 0 .07-.034.07v.035c-.069.209-.104.174-.208.174-.069 0-.173-.07-.242-.07-.035 0-.07-.035-.07-.035-.242-.104-.415-.278-.623-.452-.138-.104-.277-.278-.415-.313-.139-.07-.346-.07-.485-.14-.208-.138-.346-.382-.554-.486-.034 0-.034 0-.069-.035-.035 0-.069-.035-.104-.035h-.138c-.035 0-.07 0-.139-.035-.034 0-.069-.035-.104-.035-.034 0-.034-.034-.069-.034 0 0-.035 0-.035-.035-.069-.035-.069-.07-.069-.07-.034-.035-.034-.07-.034-.104 0-.07.034-.14.138-.174h.139c.069-.035.138-.035.173-.035.034 0 .034 0 .069-.035.138-.07.173-.174.277-.174.415-.035.762.452 1.108.696.138.104.554.522.796.418.069-.07.138-.14.069-.21-.069-.104-.138-.243-.069-.382 0-.035.035-.104.104-.174 0 0 .069-.035.069-.104 0-.07-.035-.244-.069-.313-.173-.21-.589-.105-.485-.522 0-.035 0-.035.035-.07.034-.07.242-.07.381-.14.034 0 .069-.034.069-.034h.034c.07-.035.104-.07.104-.104.035-.035.07-.14.104-.21v-.034c.104-.209.243-.418.45-.244.173.14.035.627.104.94.104.313.416.452.381.8-.035.035-.035.07-.069.07zm1.558-1.6c-.07.104-.139.243-.173.277-.035.035-.07.174-.139.244-.138.209-.208.278-.312.313h-.069c-.104 0-.207-.034-.207-.07-.243-.173-.104-.66-.174-.904-.034-.14-.484-.522-.45-.766 0-.07 0-.104.07-.139.069-.035.138-.07.138-.14v-.103l.035-.035c.034-.035.138-.035.242 0 .242.104.242.73.554.765.173 0 .692-.73.762-.104 0 .278-.139.452-.277.661zm2.839 5.393h-.035c-.104-.035-.45-.348-.554-.557 0 0-.035-.07-.035-.139.139-.244.243-.278.243-.278.277-.14.727.278.692.66 0 0 0 .105-.069.21-.104.139-.242.104-.242.104zm.969.87s-.035.07-.104.14c-.104.139-.208.173-.277.208h-.069a.638.638 0 01-.416-.174s0-.035-.034-.035v-.034-.035c.034-.14.104-.244.173-.279h.034c.035-.035.07-.035.07-.035a.772.772 0 01.346-.104c.138 0 .277 0 .312.07.034.07.034.208-.035.278zm.069-3.027c-.034.034-.034.034-.069.034h-.035c-.034 0-.069.035-.104.035h-.034c-.069.035-.104.035-.139.035-.45.07-.554-.244-.692-.487l-.035.035c-.069.139-.207.313-.173.417-.311.035-.554 0-.658.07l-.103.209c-.07.208 0 .452-.104.522-.139.104-.416.104-.623.104-.347.035-.658.313-.728-.104-.034-.07.208-.21.277-.279.139-.174.277-.383.52-.557.069-.07.277-.104.242-.104.035-.035-.035-.174-.035-.244.035-.07.243-.139.277-.174.104-.104.208-.313.277-.382.277-.175.762-.21 1.039-.175.346.035.485.279.658.383.069.035.277 0 .346.07.069.244.035.487-.104.591zm.381-.905h-.069c-.139 0-.277-.07-.381-.105h-.035l-.104-.104c0-.035-.034-.07-.034-.104 0-.14.381-.244.381-.244.45-.209 1.073-.383.727.243 0 0-.104.175-.139.244-.138.104-.346.07-.346.07zm.381 3.132c-.139.035-.312.035-.346-.07v-.104-.139c0-.105.138-.279.207-.314.139-.104.347-.209.416-.209.104 0 .207-.034.277.07.069.104.034.278 0 .383-.035.104-.173.244-.243.313-.034.035-.103.035-.138.07h-.035c-.069-.035-.104-.035-.138 0zm1.558 1.009c-.07.14-.139.174-.173.209h-.173c-.035 0-.035 0 0 0-.174-.035-.104-.174-.312-.244-.312-.14-.727.035-.796-.14 0-.034-.035-.104-.035-.138v-.07c.069-.174.312-.174.312-.174.103 0 .242 0 .346-.035.346-.104.831-.278.935.035.069.174 0 .418-.104.557zm.554-1.114s-.035 0 0 0h-.035c-.173-.07-.173-.348-.346-.626-.139-.209-.346-.244-.416-.383-.034-.035-.034-.104-.034-.104s-.035-.07 0-.14c.069-.034.207-.034.207-.034.485-.035 1.004.556.97.974 0 .07-.069.209-.104.279v.034c-.035.035-.069.07-.173.07 0-.035-.035-.07-.069-.07zm2.562.87c-.035.105-.554.488-.693.522-.242.21-.796-.243-1.177-.278-.242-.035-.485.104-.415-.313.069-.453.692-.105 1.073-.105.242-.035.45-.348.762-.313.242 0 .588.174.45.487zm.034-2.436c0 .035-.034.105-.104.14a.588.588 0 01-.207.208c-.035.035-.07.035-.104.07-.104.035-.208.035-.243-.07-.034-.243.139-.313.07-.556-.104-.348-.797-.453-.9-.766-.035-.14-.035-.278.034-.383.069-.14.139-.244.208-.278l.034-.035c.035 0 .035-.035.035-.035a.212.212 0 01.242.035c.07.035.035.209.07.348.173.348 1.038.522.865 1.322zm.346-.626c.104-.14.589.174.624.452v.035c0 .035 0 .07-.035.104l-.035.035c-.034 0-.069.035-.104.035-.069.035-.138 0-.138 0H151.079c-.242-.104-.381-.348-.208-.661zm1.212 3.236a.35.35 0 01-.035.105s-.034.07-.069.104l-.034.035c-.139.07-.381.104-.45.07-.139-.07-.139-.21-.139-.348v-.14a.261.261 0 01.104-.104c.277-.14.692-.07.623.278zM141.935 27.91l.139.244s.069.14.207.035c.173-.105.139-.105.139-.105s.069-.034.069 0V28.19l.415 1.427c0 .07.07.104.139.07l.381-.105c.034 0 .069-.035.069-.07v-.07l-.589-2.087s0-.035-.034-.035H142.766l-.173.035c-.069.034-.104.07-.139.07l-.484.313-.035.034v.14zM138.442 30.172l1.627.035c.034 0 .069-.035.104-.07V29.72l-.035-.035s0-.035-.035-.035c0 0-.034-.034-.069-.034l-1.108-.035v-.348l.935.034c.069 0 .104-.034.104-.104v-.383c0-.035 0-.07-.035-.07l-.034-.034h-.035l-.935-.035v-.313l1.039.035c.069 0 .104-.035.104-.105v-.383-.07l-.035-.034h-.208l-1.384-.035h-.035s-.035 0-.035.035h-.034c-.035.035-.035.035-.035.07l-.069 2.157c.104.14.138.174.208.174zM144.189 28.084c-.104.209-.139.418-.035.626.208.383.727.488 1.212.21.173-.07.277-.21.381-.349v-.035s0-.034.034-.034a.263.263 0 00.07-.14c0-.034.034-.034.034-.07 0 0 0-.034.035-.069v-.104-.07-.07c0-.034 0-.069-.035-.104 0-.035-.034-.07-.034-.104a.572.572 0 00-.52-.313c0-.035.035-.07.035-.105v-.209c0-.034-.035-.104-.035-.139v-.035c-.207-.348-.692-.452-1.108-.243-.034.035-.103.07-.138.104-.035.035-.069.035-.069.07-.035.035-.035.07-.07.104l-.034.035a.261.261 0 00-.069.14s-.035.069-.035.138v.035c-.035.14 0 .279.069.418-.034.174.139.278.312.313zm.692-.035c.139-.07.312-.07.381.035.035.035.035.104 0 .174 0 .035-.035.07-.069.104-.035.035-.069.035-.104.07h-.035c-.138.07-.277.035-.346-.035v-.07V28.224c.035-.07.104-.104.173-.174zm-.588-.591c0-.07.069-.14.138-.21a.225.225 0 01.312.07c.034.07.034.14-.035.21v.034l-.069.07a.225.225 0 01-.312-.07c0-.07-.034-.07-.034-.104zM145.816 26.587h.277s.138 0 .138-.104v-.104c0-.035 0-.105.035-.21.069-.104.139-.173.242-.173.208 0 .277.139.277.313s-.103.626-.103.626l-.139.592v.07c0 .034 0 .07.035.139l.173.209c.034.034.104.07.173.034l1.246-.974v-.035s0-.035.035-.035v-.034s0-.035-.035-.035l-.208-.279-.034-.034s-.035-.035-.069-.035h-.035s-.035 0-.035.035l-.519.417c-.035.035-.069.035-.069.035s.069-.174.104-.487v-.035c0-.07.034-.14.034-.244v-.278c0-.035-.034-.07-.034-.07v-.034c-.035-.035-.035-.07-.07-.105 0-.035-.034-.035-.034-.07l-.035-.034-.034-.035s-.035 0-.035-.035c0 0-.45-.313-.935.07-.069.035-.104.104-.138.139l-.035.035-.069.07v.034c0 .035-.035.035-.035.07s-.034.035-.034.07c0 .034 0 .034-.035.034 0 .035-.035.07-.035.07v.035c0 .034-.034.07-.034.104v.244c-.035.034.069.034.069.034zM147.925 25.578c.658.522 1.315.418 1.661-.07.035-.034.035-.07.069-.104l.035-.035V25.3c.035-.07.035-.105.069-.174v-.035c.035-.174.035-.279.035-.313V24.673c0-.07-.035-.104-.035-.174v-.034c0-.035-.034-.07-.034-.105 0 0 0-.035-.035-.035s0-.034-.035-.034c0 0 0-.035-.034-.035 0-.035-.035-.035-.035-.07 0 0 0-.035-.034-.035-.035-.035-.035-.07-.07-.104l-.034-.035-.173-.174c-.658-.522-1.316-.348-1.628.035l-.034.035c0 .034-.035.034-.035.07 0 .034-.034.069-.034.069 0 .035-.035.07-.035.07 0 .034-.035.07-.035.104V24.465c-.034.487.105.835.451 1.113zm.138-1.079c0-.034 0-.07.035-.07 0 0 0-.034.034-.034 0 0 0-.035.035-.035.138-.174.45-.174.761.07.174.139.312.313.312.487v.035a.27.27 0 01-.069.174c-.035.034-.035.034-.069.07 0 0-.035.034-.07.034H148.928c-.173 0-.345-.07-.518-.209-.035-.035-.104-.07-.138-.104l-.036-.035c-.035-.035-.069-.07-.069-.104v-.035c0-.035-.035-.07-.035-.07v-.07c-.069-.034-.069-.069-.069-.104zM132.556 27.944s0 .035 0 0c0 .035-.035.07 0 .105 0 .035.035.035.035.035h.034l.312.174c.069.034.138 0 .138-.035l.485-.87s.035-.105.069-.14h.035c.034 0 .034.07.034.105l.208 1.322s0 .105.104.174l.242.14c.07.034.139 0 .139-.035l1.038-1.88v-.069c0-.035-.034-.035-.034-.035l-.346-.174h-.035-.035-.034c-.035 0-.035.035-.07.035l-.173.348-.242.452s-.035.105-.069.105v.035s-.035 0-.069-.035c-.035-.035 0-.105 0-.105s-.174-1.183-.174-1.287c0-.035 0-.07-.034-.105l-.035-.034h-.034l-.277-.174h-.07-.034s-.035 0-.035.034l-1.073 1.914zM136.433 29.858c.312.07.658 0 .901-.139 0 0 .034-.035.069-.035v-.034l.035-.035v-.07l-.208-.313s0-.035-.035-.035c0 0-.034 0-.034-.034H137.057c-.035.034-.104.034-.139.07a.586.586 0 01-.346 0 .586.586 0 01-.45-.558v-.209c0-.034.035-.07.035-.104v-.035s0-.035.034-.035c0-.034.035-.034.035-.07l.034-.034.07-.07c.138-.139.346-.173.554-.139.138.035.277.14.346.244l.034.07c.035.034.104.07.174.034l.346-.243v-.035l.034-.035v-.069l-.034-.035c-.173-.244-.416-.453-.762-.522a1.248 1.248 0 00-1.523.904c-.139.696.277 1.392.934 1.566zM130.34 25.96c.451.105.658-.174.762-.313 0-.034.035-.034.035-.07v-.069-.035-.139V25.23 25.125c0-.035 0-.07-.035-.07v-.034c0-.035-.034-.07-.069-.14-.173-.382-.208-.417-.208-.417v-.035-.069-.07c0-.035.035-.035.035-.07.069-.034.104-.034.208.035.103.07.242.348.207.557 0 .07.069.104.104.104h.346c.07 0 .104-.07.104-.104 0 0-.034-1.114-.969-1.183 0 0-.139 0-.277.035-.035 0-.069.034-.104.034 0 0-.035 0-.035.035-.104.035-.173.14-.207.244 0 0 0 .035-.035.07 0 .034-.035.104-.035.104v.139c0 .14.035.244.035.244s.069.243.173.417c.069.14.104.244.104.244V25.299s0 .035-.035.035H130.34c-.034 0-.034-.035-.069-.035h-.034l-.035-.034-.035-.035-.034-.035s0-.035-.035-.035c0 0 0-.035-.034-.035a.493.493 0 01-.07-.209c-.034-.07-.034-.174-.034-.243v-.035c0-.035-.035-.035-.035-.07l-.035-.034h-.38-.07s0 .035-.034.035v.069c.034 0 .069 1.044.934 1.322zM131.206 26.796s-.035 0 0 0c-.035.035-.035.035 0 0l-.035.035v.035c0 .034.035.034.035.07l.277.243c.035.035.104.035.173 0l1.385-1.636c.034-.035.034-.035.034-.07v-.034s0-.035-.034-.035l-.277-.244c-.035-.035-.035-.035-.069-.035h-.07l-1.419 1.67zM75.154 19.245v-.035c0-4.28-2.804-6.508-5.574-6.508-1.488 0-2.561.383-3.704 1.288l-.07.07V7.934h-2.7v17.26c.347.07 3.532.557 6.163.557 2.943 0 5.885-2.227 5.885-6.507zm-9.347 3.897h-.035v-6.229c0-.522 1.246-1.775 3.15-1.775 2.043 0 3.532 1.705 3.532 4.072v.035c0 2.331-1.523 4.071-3.531 4.071-2.008.035-3.082-.174-3.116-.174zM81.663 25.752c2.977 0 6.266-.522 6.612-.557v-7.134c0-3.445-1.834-5.29-5.262-5.29-1.939 0-3.22.418-4.57 1.044.035.07.693 2.158.727 2.228 1.074-.453 2.078-.766 3.428-.766 1.939 0 3.012.975 3.012 2.75v.313l-.07-.035c-.934-.314-1.869-.522-3.323-.522-3.047 0-4.847 1.531-4.847 4.106v.035c.035 2.645 2.25 3.828 4.293 3.828zm-1.593-4.037c0-1.253 1.04-2.018 2.805-2.018.97 0 2.008.174 2.804.487h.035v3.202h-.035s-1.212.243-3.22.243c-1.42 0-2.389-.765-2.389-1.914zM108.598 21.924l1.731-1.879s3.636 5.429 3.67 5.464h3.116c-.104-.14-4.951-7.448-4.951-7.448s4.639-4.941 4.778-5.08h-3.254c-.035.034-5.09 5.672-5.09 5.672V7.935h-2.7v17.539h2.7v-3.55zM94.368 15.348h.035s1.142-.21 2.735-.21c1.661 0 2.63 1.219 2.63 3.237v7.134h2.702v-8.004c0-2.958-1.628-4.802-4.26-4.802-2.977 0-6.162.522-6.508.556v12.215h2.7V15.347h-.034zM20.213 25.613c.034-.07 2.77-8.735 2.77-8.735s2.734 8.666 2.734 8.735h2.424c.034-.07 3.912-12.493 3.946-12.632h-2.665c-.035.07-2.493 8.77-2.493 8.77s-2.735-8.736-2.735-8.805h-2.285c-.104.035-2.77 8.804-2.77 8.804s-2.458-8.7-2.458-8.77h-2.735c.035.105 3.878 12.564 3.878 12.633h2.389zM53.414 25.752c2.63 0 5.816-.522 6.162-.556V7.935h-2.7v6.09l-.07-.07c-1.142-.905-2.215-1.288-3.704-1.288-2.77 0-5.574 2.228-5.574 6.508v.035c0 4.315 2.978 6.542 5.886 6.542zm-3.185-6.542c0-2.367 1.488-4.072 3.531-4.072 1.904 0 3.15 1.288 3.15 1.775v6.23h-.034s-1.108.208-3.116.208-3.531-1.74-3.531-4.072v-.07zM7.16 23.212c-1.836 0-3.394-.661-5.055-2.157-.07.07-1.593 1.983-1.627 2.018 1.869 1.74 4.154 2.645 6.647 2.645 3.393 0 5.677-2.019 5.677-5.081 0-2.645-1.592-4.246-5.123-5.15-3.22-.801-3.843-1.671-3.843-2.924 0-1.079.9-2.158 2.666-2.158 1.454 0 2.873.557 4.362 1.706.034-.07 1.42-2.088 1.454-2.158C10.656 8.561 8.752 7.9 6.57 7.9c-3.15 0-5.436 2.088-5.436 4.942 0 3.201 2.112 4.384 5.297 5.185 3.047.73 3.67 1.67 3.67 2.888-.07 1.392-1.246 2.297-2.943 2.297zM39.53 25.787c2.286 0 3.532-.661 4.536-1.322-.035-.07-.692-2.088-.727-2.193-1.142.8-2.25 1.149-3.74 1.149-1.938 0-3.253-1.184-3.53-3.133v-.034h8.897l.035-.766c0-3.34-1.766-6.751-5.747-6.751-3.358 0-5.886 2.819-5.886 6.542v.035c0 3.759 2.597 6.473 6.163 6.473zm-3.496-7.447c.277-2.053 1.523-3.376 3.185-3.376 1.731 0 2.908 1.288 3.116 3.376v.035h-6.301v-.035z" fill="#2C1338"/><path d="M139.548 34c-9.313 0-16.929-7.621-16.929-17.017C122.653 7.62 130.235 0 139.548 0c9.313 0 16.93 7.621 16.93 17.017 0 9.362-7.582 16.983-16.93 16.983zm0-32.956c-8.724 0-15.856 7.169-15.856 15.973 0 8.805 7.132 15.974 15.891 15.974s15.891-7.17 15.891-15.974c-.035-8.804-7.167-15.973-15.926-15.973z" fill="#2C1338"/></svg>